<svg width="151" height="25" viewBox="0 0 151 25" fill="none" xmlns="http://www.w3.org/2000/svg">
<path d="M18.36 7.168H14.456C13.9867 5.12 12.3867 4.096 9.656 4.096C8.376 4.096 7.32 4.36267 6.488 4.896C5.67733 5.42933 5.272 6.19733 5.272 7.2C5.272 8.05333 5.56 8.69333 6.136 9.12C6.73333 9.52533 7.55467 9.824 8.6 10.016C8.74933 10.0373 10.1787 10.3147 12.888 10.848C16.8773 11.7227 18.872 13.9093 18.872 17.408C18.872 19.392 18.0933 21.056 16.536 22.4C15 23.744 12.8027 24.416 9.944 24.416C7.21333 24.416 5.00533 23.7653 3.32 22.464C1.63467 21.1627 0.685333 19.4453 0.472 17.312H4.376C4.824 19.808 6.73333 21.056 10.104 21.056C11.576 21.056 12.76 20.7573 13.656 20.16C14.552 19.5413 15 18.6773 15 17.568C15 16.5653 14.7013 15.808 14.104 15.296C13.528 14.784 12.6747 14.4107 11.544 14.176L7.096 13.312C3.29867 12.5867 1.4 10.5813 1.4 7.296C1.4 5.39733 2.136 3.82933 3.608 2.592C5.08 1.35467 7.11733 0.735998 9.72 0.735998C12.1307 0.735998 14.104 1.32266 15.64 2.496C17.1973 3.648 18.104 5.20533 18.36 7.168ZM38.3523 17.088H42.3843C42.0003 19.3067 40.9869 21.088 39.3443 22.432C37.7016 23.7547 35.6109 24.416 33.0723 24.416C29.7016 24.416 27.0669 23.328 25.1683 21.152C23.2696 18.9547 22.3203 16.096 22.3203 12.576C22.3203 9.056 23.2696 6.208 25.1683 4.032C27.0883 1.83467 29.7336 0.735998 33.1043 0.735998C35.5149 0.735998 37.5096 1.344 39.0883 2.56C40.6883 3.776 41.7016 5.41867 42.1283 7.488H38.0963C37.3709 5.312 35.7069 4.224 33.1043 4.224C30.8643 4.224 29.1576 5.01333 27.9843 6.592C26.8109 8.17067 26.2243 10.1653 26.2243 12.576C26.2243 14.9867 26.8003 16.9813 27.9523 18.56C29.1256 20.1387 30.8323 20.928 33.0723 20.928C34.4803 20.928 35.6323 20.5973 36.5283 19.936C37.4456 19.2533 38.0536 18.304 38.3523 17.088ZM46.8815 1.152H50.7215V24H46.8815V1.152ZM60.2803 20.512H73.2723V24H56.4403V1.152H72.8563V4.64H60.2803V10.528H70.2323V13.952H60.2803V20.512ZM93.118 1.152H96.766V24H91.358L81.95 6.72H81.182V24H77.534V1.152H82.942L92.35 18.432H93.118V1.152ZM118.539 1.152V4.544H111.243V24H107.403V4.544H100.075V1.152H118.539ZM122.038 1.152H125.878V24H122.038V1.152ZM146.829 24L144.717 17.44H135.341L133.261 24H129.421L137.005 1.152H143.149L150.765 24H146.829ZM139.309 4.896L136.429 14.016H143.597L140.685 4.896H139.309Z" fill="black"/>
</svg>
